-
http:// www . torrentkit. com        
http:// www .torrentkit. com       the fast  and The Hottest Private Tracker on the net

Please Seed back to make the speed Faster!!!

and don't forget to visit      ...... www .torrentkit .com..........
-[img]http://img707.imageshack.us/img707/2781/largenr.jpg[/img]

[color=blue][size=5][b]Country Strong 2010 PPVRIP XVID AC3 Hive-CM8[/b][/size][/color]



[b]Thx Hive

CM8 Doing It Right The First Time :D

Source: iflix
thx

Encode: video was not the greatest, has a lot of noise im some scenes 
due to bad deinterlace which i cant fix. i tried to clean up the video, 
it was already oversharpened. still added brightness,rgb and some denoise and chroma.
fixed some sync issues, removed the video/audio looping near the finish and blurred 
the logo which appears in the last 2 mins and resynced that last part.
audio is cleaned too.
still watchable


Video: 716x412 @bitrate 1400 2pass
Audio: English AC3 2.0 Stereo
Sample: yes included[/b]
 
http://www.imdb.com/title/tt1555064/


General
Complete name                    : Country.Strong.2010.PPVRIP.XVID.AC3.Hive-CM8.avi
Format                           : AVI
Format/Info                      : Audio Video Interleave
File size                        : 1.36 GiB
Duration                         : 1h 56mn
Overall bit rate                 : 1 669 Kbps
Writing application              : Nandub v1.0rc2
Writing library                  : Nandub build 1853/release

Video
ID                               : 0
Format                           : MPEG-4 Visual
Format profile                   : Advanced Simple@L5
Format settings, BVOP            : Yes
Format settings, QPel            : Yes
Format settings, GMC             : No warppoints
Format settings, Matrix          : Default (H.263)
Muxing mode                      : Packed bitstream
Codec ID                         : XVID
Codec ID/Hint                    : XviD
Duration                         : 1h 56mn
Bit rate                         : 1 401 Kbps
Width                            : 716 pixels
Height                           : 412 pixels
Display aspect ratio             : 16:9
Frame rate                       : 29.970 fps
Color space                      : YUV
Chroma subsampling               : 4:2:0
Bit depth                        : 8 bits
Scan type                        : Progressive
Bits/(Pixel*Frame)               : 0.158
Stream size                      : 1.14 GiB (84%)
Writing library                  : XviD 1.2.1 (UTC 2008-12-04)

Audio
ID                               : 1
Format                           : AC-3
Format/Info                      : Audio Coding 3
Mode extension                   : CM (complete main)
Codec ID                         : 2000
Duration                         : 1h 56mn
Bit rate mode                    : Constant
Bit rate                         : 256 Kbps
Channel(s)                       : 2 channels
Channel positions                : Front: L R
Sampling rate                    : 48.0 KHz
Bit depth                        : 16 bits
Video delay                      : 170ms
Stream size                      : 213 MiB (15%)
Alignment                        : Split accross interleaves
Interleave, duration             : 33 ms (1.00 video frame)
Interleave, preload duration     : 500 ms



Gwyneth Paltrow	 ... 	Kelly Canter
Tim McGraw	... 	James Canter
Garrett Hedlund	... 	Beau Hutton
Tina White	... 	Interviewee
Leighton Meester ...    Chiles Stanton
Marshall Chapman ... 	Winnie
Lari White	... 	Hair Stylist
Jeremy Childs	... 	JJ



A drama centered on a rising country-music songwriter (Hedlund) who sparks 
with a fallen star (Paltrow). Together, they mount his ascent and her comeback, 
which leads to romantic complications involving her husband/manager (McGraw) 
and a beauty queen-turned-singer (Meester).  




[img]http://img220.imageshack.us/img220/9372/86830280.png[/img]
[img]http://img153.imageshack.us/img153/1010/coccocococoo.png[/img]
[img]http://img839.imageshack.us/img839/9910/coccococoo.png[/img]
[img]http://img34.imageshack.us/img34/9349/coccocoo.png[/img]
[img]http://img35.imageshack.us/img35/1572/coccoo.png[/img]
[img]http://img191.imageshack.us/img191/8886/cocou.png[/img]





Greetz

iNK,LUSi,,MAGNET,CLASSiFiED,THC,LEGi0N,T0XiC,IMAGiNE,ViSiON,WBZ,FLAWL3SS,NOVA
Vik,Rapeseed,D2U,SAFC,goldadvance,MEMORY100,KaN1vE,Unevano,Pinnz,Wayne,Mr Hive
and all P2P groups 
Great Work Guys :D

CM8@hushmail.com